<?xml version="1.0" standalone="no"?>
<!DOCTYPE svg PUBLIC "-//W3C//DTD SVG 20010904//EN"
 "http://www.w3.org/TR/2001/REC-SVG-20010904/DTD/svg10.dtd">
<svg version="1.0" xmlns="http://www.w3.org/2000/svg"
 width="1000.000000pt" height="1000.000000pt" viewBox="0 0 1000.000000 1000.000000"
 preserveAspectRatio="xMidYMid meet">
<metadata>
Created by potrace 1.14, written by Peter Selinger 2001-2017
</metadata>
<g transform="translate(0.000000,1000.000000) scale(0.100000,-0.100000)"
fill="#000000" stroke="none">
<path d="M4836 9873 c-1 -1 -51 -5 -112 -8 -126 -6 -204 -13 -254 -21 -19 -3
-51 -7 -70 -9 -19 -2 -64 -7 -100 -10 -35 -4 -74 -11 -86 -15 -12 -5 -48 -12
-81 -16 -32 -3 -68 -10 -80 -15 -13 -5 -44 -11 -70 -15 -27 -3 -56 -10 -65
-15 -10 -6 -18 -8 -18 -5 0 2 -27 -5 -61 -15 -33 -10 -72 -19 -85 -19 -13 0
-24 -4 -24 -10 0 -5 -8 -10 -18 -10 -10 0 -51 -11 -92 -24 -41 -14 -86 -27
-100 -29 -14 -3 -36 -10 -50 -15 -32 -13 -62 -24 -75 -28 -5 -1 -28 -10 -50
-20 -42 -18 -55 -22 -93 -28 -13 -1 -27 -7 -30 -13 -4 -6 -18 -14 -32 -18 -14
-4 -47 -18 -75 -31 -27 -13 -61 -25 -75 -26 -14 -2 -29 -8 -35 -14 -5 -6 -25
-19 -42 -28 -18 -9 -46 -23 -63 -32 -16 -8 -30 -12 -30 -8 0 4 -8 0 -17 -8
-10 -8 -49 -30 -88 -49 -38 -19 -71 -37 -73 -41 -2 -5 -10 -8 -17 -8 -7 0 -15
-3 -17 -7 -1 -5 -19 -16 -38 -26 -19 -9 -53 -28 -75 -42 -22 -14 -51 -31 -65
-38 -14 -6 -32 -17 -40 -24 -36 -28 -212 -143 -219 -143 -4 0 -25 -16 -47 -35
-21 -19 -42 -35 -46 -35 -4 0 -20 -12 -36 -27 -16 -16 -42 -37 -57 -48 -43
-30 -228 -185 -241 -201 -6 -8 -14 -14 -18 -14 -3 0 -36 -29 -72 -65 -37 -36
-71 -65 -76 -65 -5 0 -6 -4 -3 -10 3 -5 -2 -10 -11 -10 -10 0 -15 -2 -12 -5 3
-3 -31 -43 -76 -89 -44 -46 -101 -107 -126 -136 -25 -29 -52 -60 -61 -69 -9
-9 -37 -43 -64 -76 -26 -33 -57 -68 -69 -77 -11 -10 -17 -18 -13 -18 5 0 -10
-22 -32 -49 -23 -27 -41 -53 -41 -59 0 -5 -7 -12 -15 -16 -8 -3 -15 -10 -15
-16 0 -12 -60 -93 -72 -98 -5 -2 -8 -8 -8 -13 0 -6 -5 -15 -11 -22 -5 -7 -41
-61 -79 -122 -38 -60 -76 -118 -84 -127 -9 -10 -14 -18 -11 -18 5 0 -51 -106
-69 -130 -6 -8 -20 -33 -30 -55 -10 -22 -22 -47 -26 -55 -29 -52 -110 -216
-110 -222 0 -4 -14 -36 -30 -72 -17 -36 -31 -69 -31 -73 -1 -5 -6 -17 -12 -28
-6 -11 -12 -22 -13 -25 0 -3 -4 -13 -8 -22 -4 -9 -8 -22 -10 -30 -1 -7 -6 -20
-11 -28 -5 -8 -10 -19 -11 -25 -1 -5 -18 -57 -39 -115 -31 -90 -51 -153 -69
-220 -3 -8 -11 -37 -20 -64 -8 -27 -13 -53 -10 -57 2 -4 0 -10 -5 -13 -5 -3
-12 -23 -16 -43 -5 -21 -9 -42 -11 -48 -9 -34 -36 -166 -40 -195 -3 -19 -7
-42 -9 -50 -2 -8 -7 -28 -10 -45 -2 -16 -7 -41 -10 -55 -5 -25 -15 -101 -20
-150 -1 -14 -5 -47 -9 -75 -12 -82 -15 -106 -22 -190 -5 -70 -15 -257 -14
-292 0 -25 0 -49 -3 -98 -1 -27 -1 -54 1 -58 3 -5 6 -69 8 -143 3 -139 10
-237 21 -289 3 -16 7 -43 8 -60 5 -50 16 -148 20 -175 16 -116 20 -136 35
-200 6 -25 12 -54 14 -65 14 -74 19 -98 37 -165 19 -68 46 -170 52 -195 1 -5
6 -15 9 -21 4 -6 9 -21 11 -35 7 -34 59 -202 67 -214 4 -5 19 -46 34 -90 36
-104 44 -123 121 -289 25 -54 45 -105 45 -113 0 -7 7 -16 15 -19 8 -4 15 -14
15 -23 0 -9 5 -22 10 -27 6 -6 12 -21 15 -34 2 -12 11 -30 19 -39 13 -15 40
-62 115 -201 19 -36 40 -69 48 -73 7 -4 13 -13 13 -18 0 -11 99 -170 111 -179
4 -3 9 -11 11 -19 2 -7 13 -25 26 -40 38 -43 47 -55 62 -84 8 -16 22 -33 32
-38 10 -5 18 -16 18 -23 0 -7 13 -27 30 -44 16 -18 30 -34 30 -37 0 -3 12 -18
28 -34 43 -46 82 -91 77 -91 -6 0 36 -48 102 -116 29 -29 57 -63 63 -74 6 -11
15 -18 21 -15 5 4 9 1 9 -4 0 -16 246 -255 379 -368 14 -12 33 -28 41 -36 8
-7 35 -28 60 -47 25 -19 47 -37 50 -41 7 -9 228 -170 280 -204 25 -17 47 -33
48 -37 2 -5 8 -8 14 -8 6 0 26 -11 44 -25 18 -14 35 -25 37 -25 3 0 34 -18 68
-40 35 -22 80 -47 99 -55 19 -9 37 -19 40 -23 9 -13 471 -238 505 -247 6 -1
23 -7 38 -13 16 -7 33 -12 38 -12 5 0 9 -5 9 -12 0 -6 3 -9 6 -5 3 3 36 -6 72
-20 88 -33 329 -112 356 -116 11 -2 29 -7 38 -11 9 -4 22 -8 30 -10 7 -1 18
-4 23 -8 6 -3 30 -9 55 -13 25 -4 48 -9 53 -12 4 -3 23 -7 40 -10 18 -2 69
-13 113 -24 45 -11 85 -19 90 -18 5 2 23 0 39 -4 17 -4 44 -9 60 -12 17 -2 62
-9 100 -15 39 -6 90 -13 115 -15 25 -2 61 -7 80 -10 127 -19 614 -32 760 -20
25 2 83 6 130 10 47 3 101 8 120 10 19 3 62 7 94 10 33 3 71 8 85 11 32 7 42
9 111 19 30 4 62 9 70 11 38 8 258 55 278 59 13 2 49 12 80 21 31 10 64 19 72
19 8 1 41 10 72 19 32 9 61 17 65 17 5 0 14 5 21 11 6 6 12 7 12 3 0 -4 7 -2
15 5 8 7 15 9 15 5 0 -4 6 -3 13 3 6 5 27 13 46 17 18 4 52 15 75 25 46 19 73
29 84 30 4 1 16 7 28 15 12 7 39 17 60 21 21 4 41 10 44 13 3 4 25 15 50 26
147 61 401 185 453 219 18 11 52 32 77 45 25 14 71 42 103 63 33 20 68 40 78
43 10 4 19 10 19 13 0 4 17 16 38 27 20 11 39 22 42 26 3 3 28 21 55 39 28 19
56 40 63 47 7 7 18 13 23 13 6 0 24 13 42 30 18 16 35 30 38 30 3 0 17 10 30
21 13 12 47 38 74 59 28 21 66 52 85 68 19 17 50 44 68 59 73 62 181 163 262
245 133 136 218 228 211 228 -3 0 -1 4 4 8 14 10 85 90 120 136 17 22 46 58
65 81 19 23 42 52 50 65 8 12 29 41 46 64 145 193 366 571 472 806 11 25 34
76 51 113 17 38 31 70 31 71 0 2 8 21 17 42 9 22 17 41 18 44 0 3 5 19 12 35
10 27 23 63 28 75 1 3 8 21 16 40 7 19 12 39 11 44 -2 4 1 13 6 20 8 10 39 96
44 121 1 6 15 53 30 105 16 52 32 106 34 120 3 14 8 34 11 45 3 11 8 29 9 40
2 11 13 61 24 110 26 107 28 117 36 170 4 22 8 49 10 60 18 106 35 234 40 300
2 28 6 70 9 95 16 144 20 410 10 655 -5 116 -10 174 -31 350 -4 28 -8 61 -9
75 -2 14 -6 41 -10 60 -3 19 -8 49 -10 65 -8 60 -18 114 -30 168 -3 12 -10 43
-15 68 -5 25 -18 81 -30 125 -12 43 -23 86 -25 94 -2 8 -10 42 -18 76 -8 33
-19 70 -25 81 -6 11 -8 23 -5 27 3 3 2 6 -3 6 -5 0 -11 11 -12 26 -1 14 -6 34
-12 44 -5 10 -10 28 -10 39 0 12 -4 21 -8 21 -5 0 -9 6 -9 13 0 14 -83 234
-119 315 -13 29 -24 55 -24 59 0 13 -104 218 -114 225 -6 4 -8 8 -4 8 5 0 -7
28 -25 63 -80 149 -99 183 -111 197 -6 8 -22 34 -35 58 -45 84 -216 338 -294
436 -26 34 -53 68 -60 76 -40 52 -168 203 -207 244 -78 86 -303 309 -364 361
-32 28 -64 55 -70 60 -6 6 -58 49 -116 95 -58 47 -111 91 -118 98 -8 6 -23 17
-34 23 -19 10 -45 30 -78 59 -23 20 -50 38 -77 50 -13 5 -23 14 -23 20 0 5 -6
10 -12 10 -14 0 -118 68 -130 85 -4 5 -10 7 -13 3 -6 -6 -27 8 -61 40 -8 7
-14 11 -14 8 0 -8 -154 86 -158 96 -2 4 -12 8 -22 8 -9 0 -23 7 -30 15 -7 9
-15 14 -17 11 -2 -2 -78 34 -169 80 -90 46 -165 83 -167 83 -5 -1 -44 14 -72
27 -16 7 -61 25 -100 39 -38 15 -79 30 -90 35 -11 4 -36 13 -55 20 -19 7 -44
16 -55 20 -27 10 -108 35 -117 35 -3 0 -10 3 -14 8 -4 4 -15 7 -25 7 -10 0
-30 5 -46 12 -15 6 -31 11 -35 10 -4 -1 -20 3 -35 9 -15 6 -41 13 -58 16 -16
3 -38 9 -47 14 -9 5 -21 8 -25 7 -14 -3 -97 14 -108 22 -5 4 -30 11 -55 14
-25 3 -58 10 -75 14 -16 5 -42 8 -57 8 -16 -1 -28 1 -28 4 0 12 -299 50 -520
67 -69 5 -510 10 -514 6z"/>
</g>
</svg>
