<svg width="263" height="64" viewBox="0 0 263 64" fill="none" xmlns="http://www.w3.org/2000/svg">
<path d="M78.1758 17.499H87.4619C94.2992 17.499 98.171 21.1086 98.171 26.2759C98.171 31.4432 94.5613 35.4347 87.1624 35.4347H80.1978V47.6041H78.1758V17.499ZM87.3796 33.585C92.5843 33.585 96.1115 30.7467 96.1115 26.2759C96.1115 21.543 92.2398 19.3487 87.3796 19.3487H80.1978V33.585H87.3796Z" fill="#A7C4B0"/>
<path d="M109.309 17.499H111.331V45.6721H127.799V47.6041H109.309V17.499Z" fill="#A7C4B0"/>
<path d="M148.609 17.497H150.503L163.451 47.602H161.257L157.386 39.1323H141.734L137.862 47.602H135.713L148.616 17.497H148.609ZM156.524 37.2151L149.56 20.0133L142.595 37.2151H156.532H156.524ZM144.085 7.39455C144.085 4.54131 146.497 2.12988 149.567 2.12988C152.638 2.12988 154.989 4.54131 154.989 7.39455C154.989 10.2478 152.578 12.6592 149.567 12.6592C146.557 12.6592 144.085 10.2478 144.085 7.39455ZM152.907 7.39455C152.907 5.69459 151.32 4.10704 149.567 4.10704C147.815 4.10704 146.167 5.69459 146.167 7.39455C146.167 9.09451 147.755 10.6298 149.567 10.6298C151.38 10.6298 152.907 9.09451 152.907 7.39455Z" fill="#A7C4B0"/>
<path d="M198.536 17.499V47.6041H196.042L177.036 20.3823V47.6041H175.014V17.499H177.38L196.514 44.8932V17.499H198.536Z" fill="#A7C4B0"/>
<path d="M218.66 19.4387H208.168V17.499H231.136V19.4387H220.682V47.6041H218.66V19.4387Z" fill="#A7C4B0"/>
<path d="M240.766 46.1438L259.944 19.4162H241.065V17.499L262.573 17.544V19.0493L243.536 45.6721H263V47.6041H240.766V46.1438Z" fill="#A7C4B0"/>
<path d="M60.8542 0.348633H2.44136C1.09338 0.348633 0 1.4495 0 2.79749V61.2103C0 62.5583 1.10086 63.6517 2.44136 63.6517H60.8542C62.2022 63.6517 63.2956 62.5508 63.2956 61.2103V2.79749C63.2956 1.4495 62.1947 0.348633 60.8542 0.348633ZM32.5165 5.50835L42.1321 13.7536L32.5165 20.4635V5.51585V5.50835ZM31.0113 5.50835V12.3607L26.503 9.23028L31.0113 5.50835ZM25.3572 10.0691L31.0113 13.8883V20.456L21.0811 13.8883L25.3572 10.0691ZM15.5019 18.9285L19.8529 14.9668L31.0038 22.5229V35.3514L15.5019 25.159V18.9285ZM15.5019 26.874L31.0038 37.1037V44.2855L15.5019 33.7487V26.874ZM15.5019 35.3514L31.0038 45.8133V51.7668L15.5019 41.0728V35.3439V35.3514ZM32.509 58.4993H31.0038V52.6954H32.509V58.4993ZM47.7787 41.305L32.509 51.7668V39.1183L47.7787 29.0159V41.2975V41.305ZM47.7787 26.844L32.509 37.1037V31.1276L47.7787 20.8679V26.844ZM32.509 29.0234V22.2385L43.5775 14.9668L47.7787 18.9285L32.509 29.0309V29.0234Z" fill="#A7C4B0"/>
</svg>
