<svg width="50" height="50" viewBox="0 0 50 50" fill="none" xmlns="http://www.w3.org/2000/svg">
<path d="M49.0312 0.96875L47.9688 1C47.6641 1.00391 40.5 1.15625 33.5312 4.625C31.0117 5.88281 28.7852 7.49609 26.9062 9.375C21.1875 15.0938 9.97266 29.332 9.5 29.9375L9.375 30.0625L9.3125 30.25C9.15234 30.7734 8.9375 32.8086 13.0625 36.9375C16.2188 40.0938 18.1758 40.75 19.25 40.75C19.4922 40.75 19.6523 40.7188 19.75 40.6875L19.9375 40.625L20.0938 40.5C20.7031 40.0195 35.0703 28.6484 40.625 23.0938C42.4961 21.2188 44.0898 18.9883 45.3438 16.4688C48.7969 9.51172 48.9922 2.33594 49 2.03125L49.0312 0.96875ZM34 12C36.2109 12 38 13.7891 38 16C38 18.2109 36.2109 20 34 20C31.7891 20 30 18.2109 30 16C30 13.7891 31.7891 12 34 12ZM9 20C8.70312 20 8.41016 20.1172 8.21875 20.3438L3.21875 26.3438C3 26.6094 2.95703 26.9844 3.0625 27.3125C3.16797 27.6406 3.41406 27.8867 3.75 27.9688L7.6875 28.9688L7.8125 28.8438L7.90625 28.6875C8.14844 28.3789 11.2031 24.4961 14.9062 20H9ZM8 33.5938L7.15625 35C6.58984 36 7.52344 37.7109 9.90625 40.0938C11.8516 42.0391 13.3047 43 14.3438 43C14.6562 43 14.8594 42.9258 15 42.8438L16.4062 42C14.9688 41.293 13.3984 40.0859 11.6562 38.3438C9.78516 36.4688 8.64844 34.9062 8 33.5938ZM30 35.0625C25.5156 38.7617 21.625 41.8477 21.3125 42.0938L21.1875 42.1875L21.0312 42.3125L22.0312 46.25C22.1133 46.5859 22.3594 46.832 22.6875 46.9375C22.7891 46.9688 22.8945 47 23 47C23.2305 47 23.4414 46.9336 23.625 46.7812L29.625 41.7812C29.8516 41.5898 30 41.2969 30 41V35.0625ZM6.40625 38.2188C4.77344 39.4727 3.29688 39.6328 1.96875 40.9375C1.30469 41.5898 0.777344 42.5156 0.46875 43.7812C0.160156 45.0469 0.03125 46.6797 0.03125 48.9688V49.9688H1.03125C5.625 49.9688 7.87109 49.2422 9.21875 47.875C10.5664 46.5078 10.7891 44.9844 11.8125 43.5938L10.1875 42.4062C8.89062 44.1719 8.60156 45.6367 7.78125 46.4688C7.05859 47.2031 5.44922 47.7422 2.125 47.875C2.17578 46.4219 2.24609 45.0273 2.4375 44.25C2.6875 43.2383 2.99219 42.75 3.375 42.375C4.13672 41.625 5.62891 41.2891 7.59375 39.7812L6.40625 38.2188Z" fill="url(#paint0_linear_2539_8310)"/>
<defs>
<linearGradient id="paint0_linear_2539_8310" x1="24.5312" y1="0.96875" x2="24.5313" y2="49.9688" gradientUnits="userSpaceOnUse">
<stop stop-color="#FFEA00"/>
<stop offset="1" stop-color="#FFB807"/>
</linearGradient>
</defs>
</svg>
